<svg xmlns="http://www.w3.org/2000/svg" width="640" height="360" viewBox="0 0 640 360"><defs><linearGradient id="bg" x1="0" y1="0" x2="1" y2="1"><stop offset="0" stop-color="#2a2f2a"/><stop offset="0.6" stop-color="#1c1f1d"/><stop offset="1" stop-color="#121413"/></linearGradient></defs><rect width="640" height="360" fill="url(#bg)"/><path d="M0 250 C120 225 210 270 330 245 S530 215 640 240 V360 H0Z" fill="#0e0e10" opacity="0.55"/><g transform="translate(250 150)"><rect x="-56" y="-18" width="112" height="44" rx="8" fill="#4a4f47"/><rect x="-26" y="-34" width="52" height="24" rx="6" fill="#5a6052"/><circle r="64" fill="none" stroke="#f2f2f3" stroke-width="3" stroke-dasharray="8 6" opacity="0.45"/><circle r="42" fill="none" stroke="#f2f2f3" stroke-width="3"/><circle r="3" fill="#f2f2f3"/><text x="0" y="78" text-anchor="middle" font-size="20" fill="#f2ead3" font-family="Segoe UI, Arial, sans-serif">418 м</text></g><g transform="translate(410 70)"><rect width="200" height="138" rx="6" fill="#0e0e10" stroke="#6b6b70" stroke-width="1.5" opacity="0.94"/><text x="14" y="28" font-size="17" fill="#f2ead3" font-family="Segoe UI, Arial, sans-serif">ББ 105 мм</text><text x="14" y="56" font-size="14" fill="#c9c9cc" font-family="Segoe UI, Arial, sans-serif">Урон: 320</text><text x="14" y="78" font-size="14" fill="#c9c9cc" font-family="Segoe UI, Arial, sans-serif">Пробитие: 212 мм</text><text x="14" y="100" font-size="14" fill="#c9c9cc" font-family="Segoe UI, Arial, sans-serif">Скорость: 1 288 м/с</text><text x="14" y="122" font-size="14" fill="#e8b84a" font-family="Segoe UI, Arial, sans-serif">Урон модулям: 175</text></g><g transform="translate(410 250)"><rect width="56" height="56" rx="6" fill="#2f3330" stroke="#e8b84a" stroke-width="2"/><rect x="22" y="10" width="12" height="36" rx="4" fill="#c9a35a"/><rect x="66" width="56" height="56" rx="6" fill="#2f3330" stroke="#6b6b70" stroke-width="1.5"/><rect x="88" y="10" width="12" height="36" rx="4" fill="#9aa0a6"/><rect x="132" width="56" height="56" rx="6" fill="#2f3330" stroke="#6b6b70" stroke-width="1.5"/><rect x="154" y="10" width="12" height="36" rx="4" fill="#c46a4a"/></g></svg>
