<svg xmlns="http://www.w3.org/2000/svg" width="640" height="360" viewBox="0 0 640 360"><rect width="640" height="360" fill="#18181b"/><rect width="640" height="190" fill="#1f1f23"/><path d="M0 300 C160 280 300 320 460 296 S600 280 640 290 V360 H0Z" fill="#0e0e10" opacity="0.6"/><g transform="translate(320 18)" font-family="Segoe UI, Arial, sans-serif"><rect width="296" height="196" rx="8" fill="#0e0e10" fill-opacity="0.85" stroke="#3a3a42"/><rect width="4" height="196" rx="2" fill="#f2c94c"/><text x="18" y="30" font-size="15" font-weight="700" fill="#f2ead3">ТРИАТЛОН</text><text x="278" y="32" font-size="20" font-weight="700" fill="#f2c94c" text-anchor="end">3 600</text><text x="18" y="50" font-size="12" fill="#7cd35b">Раунд: осталось 20 минут</text><text x="18" y="78" font-size="13" fill="#f2c94c">1. Т-34-85</text><text x="278" y="78" font-size="13" fill="#f2c94c" text-anchor="end">1 500</text><text x="18" y="100" font-size="13" fill="#f2ead3">2. Leopard 1</text><text x="278" y="100" font-size="13" fill="#f2ead3" text-anchor="end">1 200</text><text x="18" y="122" font-size="13" fill="#f2ead3">3. ИС-3</text><text x="278" y="122" font-size="13" fill="#f2ead3" text-anchor="end">900</text><text x="18" y="146" font-size="13" fill="#a09a8b">В раунде</text><text x="278" y="146" font-size="13" fill="#f2ead3" text-anchor="end">4 боя</text><text x="18" y="168" font-size="13" fill="#a09a8b">Лучший раунд</text><text x="278" y="168" font-size="13" fill="#f2ead3" text-anchor="end">4 120</text><text x="18" y="188" font-size="10" fill="#a09a8b">Сумма 3 лучших боёв по чистому опыту за 60 минут</text></g><g transform="translate(320 224)" font-family="Segoe UI, Arial, sans-serif"><rect width="296" height="92" rx="8" fill="#0e0e10" fill-opacity="0.85" stroke="#3a3a42"/><rect width="4" height="92" rx="2" fill="#5b9bd5"/><text x="18" y="30" font-size="15" font-weight="700" fill="#f2ead3">ТОРГОВЫЙ КАРАВАН</text><text x="278" y="32" font-size="17" font-weight="700" fill="#f2c94c" text-anchor="end">12 жетонов</text><text x="18" y="58" font-size="13" fill="#a09a8b">До конца</text><text x="278" y="58" font-size="13" fill="#f2ead3" text-anchor="end">3 дня 4 часа</text><text x="18" y="80" font-size="11" fill="#a09a8b">Жетоны — как на странице каравана в игре</text></g></svg>
