<svg xmlns="http://www.w3.org/2000/svg" width="640" height="360" viewBox="0 0 640 360"><rect width="640" height="360" fill="#1f1f23"/><path d="M0 250 L140 200 L260 230 L420 180 L640 220 L640 360 L0 360 Z" fill="#27272c"/><path d="M0 300 L200 270 L380 290 L640 260 L640 360 L0 360 Z" fill="#18181b"/><g transform="translate(250 206)"><rect width="110" height="34" rx="6" fill="#3a3a42"/><rect x="30" y="-18" width="50" height="22" rx="4" fill="#3a3a42"/><rect x="78" y="-12" width="70" height="8" rx="3" fill="#3a3a42"/></g><g fill="none" stroke="#e8b84a" stroke-width="3" stroke-linecap="round"><path d="M470 80 C410 60 360 110 330 170" stroke-dasharray="8 8"/></g><g transform="translate(470 56)"><rect width="56" height="40" rx="6" fill="#e8b84a"/><path d="M56 12 L76 2 L76 38 L56 28 Z" fill="#e8b84a"/><circle cx="28" cy="20" r="10" fill="#0e0e10"/></g><g font-family="Segoe UI, Arial, sans-serif"><rect x="24" y="24" width="190" height="36" rx="6" fill="#0e0e10" fill-opacity="0.85" stroke="#3a3a42"/><text x="40" y="48" font-size="15" font-weight="700" fill="#f2f2f3">Реплей · Ctrl+Shift+F</text></g></svg>
