<svg xmlns="http://www.w3.org/2000/svg" width="640" height="360" viewBox="0 0 640 360"><defs><linearGradient id="bg" x1="0" y1="0" x2="1" y2="1"><stop offset="0" stop-color="#2a2f2a"/><stop offset="0.6" stop-color="#1c1f1d"/><stop offset="1" stop-color="#121413"/></linearGradient></defs><rect width="640" height="360" fill="url(#bg)"/><path d="M0 250 C120 225 210 270 330 245 S530 215 640 240 V360 H0Z" fill="#0e0e10" opacity="0.55"/><g font-family="Segoe UI, Arial, sans-serif"><g transform="translate(170 170)" fill="none" stroke-width="2"><circle r="44" stroke="#a3a3ad" stroke-opacity="0.35"/><circle cx="-26" r="44" stroke="#a3a3ad" stroke-opacity="0.2"/><circle cx="-52" r="44" stroke="#a3a3ad" stroke-opacity="0.1"/><circle r="3" fill="#a3a3ad" stroke="none"/></g><text x="130" y="262" font-size="14" fill="#a3a3ad" text-anchor="middle">10 раз в секунду</text><g transform="translate(470 170)" fill="none" stroke-width="2"><circle r="44" stroke="#ff7a1a"/><path d="M-60 0 H-50 M50 0 H60 M0 -60 V-50 M0 50 V60" stroke="#ff7a1a"/><circle r="3" fill="#ff7a1a" stroke="none"/></g><text x="470" y="262" font-size="14" fill="#f2f2f3" text-anchor="middle" font-weight="700">каждый кадр</text><path d="M268 170 H356" stroke="#3a3a42" stroke-width="2"/><path d="M350 162 L362 170 L350 178" fill="none" stroke="#3a3a42" stroke-width="2"/><text x="320" y="60" font-size="18" font-weight="700" fill="#f2f2f3" text-anchor="middle">Отзывчивый прицел</text><text x="320" y="306" font-size="13" fill="#a3a3ad" text-anchor="middle">сведение и пробитие — раз в серверный тик, как в игре</text></g></svg>
